<?xml version="1.0" standalone="no"?>
<!DOCTYPE svg PUBLIC "-//W3C//DTD SVG 20010904//EN"
 "http://www.w3.org/TR/2001/REC-SVG-20010904/DTD/svg10.dtd">
<svg version="1.0" xmlns="http://www.w3.org/2000/svg"
 width="2009.000000pt" height="2009.000000pt" viewBox="0 0 2009.000000 2009.000000"
 preserveAspectRatio="xMidYMid meet">
<metadata>
Created by potrace 1.14, written by Peter Selinger 2001-2017
</metadata>
<g transform="translate(0.000000,2009.000000) scale(0.100000,-0.100000)"
fill="#000000" stroke="none">
<path d="M11689 14987 c6 -8 7 -18 3 -22 -4 -5 -2 -5 4 -2 6 3 17 -5 24 -18 7
-14 17 -25 22 -25 5 0 6 -5 2 -12 -4 -6 -3 -8 3 -5 6 4 23 -11 38 -33 15 -22
32 -37 38 -33 5 3 7 1 3 -5 -3 -6 4 -18 16 -27 13 -8 23 -19 23 -23 0 -4 4 -6
8 -4 5 1 6 -1 3 -6 -3 -5 6 -20 19 -34 13 -14 21 -29 18 -32 -4 -3 2 -6 12 -6
10 0 16 -3 13 -6 -4 -3 8 -19 24 -35 17 -16 27 -29 23 -29 -4 0 4 -9 19 -21
14 -11 26 -27 26 -35 0 -8 7 -14 15 -14 14 0 19 -12 16 -32 0 -5 4 -8 10 -8
11 0 39 -24 39 -34 0 -3 10 -16 23 -29 12 -14 36 -41 52 -62 17 -21 42 -51 58
-67 15 -16 27 -31 27 -35 0 -3 10 -14 22 -24 11 -11 18 -19 14 -19 -4 0 9 -15
29 -32 19 -18 35 -36 35 -40 0 -4 10 -18 23 -31 52 -57 83 -93 87 -102 3 -5
16 -21 30 -36 44 -47 80 -93 80 -102 0 -4 5 -5 10 -2 6 3 10 -4 10 -15 0 -16
5 -20 15 -16 8 3 14 2 13 -2 -3 -16 15 -41 26 -35 6 3 8 3 4 -2 -10 -11 10
-45 27 -45 8 0 15 -6 15 -13 0 -7 9 -19 19 -27 11 -7 18 -17 15 -22 -3 -4 0
-8 6 -8 6 0 8 -5 5 -10 -4 -6 -3 -9 2 -8 11 4 53 -34 53 -47 0 -6 13 -21 29
-35 17 -13 28 -27 25 -31 -2 -5 5 -13 17 -19 11 -7 18 -14 15 -17 -3 -3 8 -18
24 -33 17 -16 30 -32 30 -37 1 -4 14 -19 30 -33 17 -13 30 -28 30 -32 0 -4 16
-24 35 -44 19 -20 32 -41 28 -47 -3 -7 -3 -9 2 -5 8 7 75 -67 75 -84 0 -5 5
-6 10 -3 6 3 10 2 10 -3 0 -8 33 -49 79 -99 12 -12 21 -30 21 -40 0 -15 2 -16
10 -3 8 13 10 12 10 -2 0 -10 4 -18 9 -18 5 0 22 -20 37 -44 16 -24 34 -46 39
-48 6 -1 9 -6 7 -10 -1 -5 5 -8 15 -8 9 0 13 -3 10 -7 -4 -3 5 -16 18 -29 14
-13 25 -27 25 -31 0 -5 11 -17 25 -27 14 -10 25 -24 25 -31 0 -7 7 -15 15 -19
8 -3 15 -13 15 -21 0 -9 5 -13 10 -10 6 3 10 -1 10 -9 0 -9 7 -16 16 -16 8 0
13 -4 9 -9 -3 -5 4 -16 15 -24 11 -7 17 -17 13 -20 -3 -4 1 -7 10 -7 10 0 16
-3 16 -7 -3 -21 2 -33 15 -33 14 0 31 -27 27 -43 -1 -5 3 -6 9 -2 5 3 10 2 10
-2 0 -5 20 -31 45 -57 25 -27 45 -52 45 -56 0 -5 16 -22 35 -39 20 -17 30 -31
23 -31 -7 0 1 -9 17 -20 17 -11 26 -20 21 -20 -5 0 1 -8 12 -19 12 -10 22 -23
22 -29 0 -6 9 -13 20 -17 11 -3 19 -9 17 -13 -2 -8 28 -46 56 -71 9 -8 17 -21
17 -28 0 -7 7 -13 15 -13 8 0 15 -5 15 -11 0 -5 -5 -7 -12 -3 -7 4 -8 3 -4 -5
4 -6 12 -9 17 -6 5 4 14 -6 19 -20 5 -14 14 -23 20 -20 5 3 10 4 10 2 0 -3 7
-21 16 -42 14 -35 14 -37 -1 -31 -9 3 -14 2 -10 -3 3 -5 0 -15 -7 -23 -7 -7
-31 -36 -53 -63 -22 -28 -43 -51 -47 -53 -5 -2 -8 -10 -8 -18 0 -7 -9 -19 -20
-26 -11 -7 -20 -18 -20 -25 0 -6 -3 -13 -7 -15 -14 -6 -123 -147 -123 -158 0
-6 -4 -8 -10 -5 -5 3 -10 0 -10 -7 0 -7 -12 -24 -25 -37 -14 -13 -25 -30 -25
-39 0 -8 -3 -12 -7 -9 -7 8 -39 -34 -35 -46 1 -5 -6 -11 -17 -14 -11 -3 -22
-16 -25 -29 -4 -14 -11 -22 -16 -19 -6 3 -10 -1 -10 -10 0 -8 -7 -18 -15 -21
-8 -4 -12 -10 -9 -15 3 -5 1 -9 -4 -9 -5 0 -21 -18 -36 -40 -15 -23 -31 -38
-36 -35 -5 3 -7 0 -4 -8 3 -8 -2 -17 -10 -20 -9 -4 -16 -13 -16 -20 0 -8 -11
-23 -25 -33 -14 -10 -25 -27 -25 -37 0 -10 -4 -16 -9 -12 -6 3 -15 -5 -22 -17
-7 -13 -18 -27 -25 -31 -8 -4 -14 -13 -14 -20 0 -7 -14 -25 -30 -40 -17 -16
-28 -32 -25 -36 2 -5 -7 -14 -21 -21 -13 -8 -23 -19 -20 -26 3 -7 -4 -16 -15
-19 -10 -4 -17 -10 -14 -15 3 -5 -5 -17 -18 -27 -13 -10 -22 -24 -19 -32 3 -8
1 -11 -4 -8 -11 6 -35 -18 -27 -27 4 -3 1 -6 -6 -6 -7 0 -9 -4 -6 -10 3 -5 0
-10 -7 -10 -7 0 -23 -16 -36 -35 -12 -19 -27 -35 -33 -35 -5 0 -7 -5 -4 -10 3
-6 -1 -13 -9 -16 -9 -3 -13 -10 -10 -15 3 -5 -2 -12 -10 -15 -9 -3 -16 -13
-16 -22 0 -8 -3 -12 -7 -9 -7 8 -53 -56 -53 -73 0 -6 -4 -9 -9 -5 -6 3 -15 -5
-22 -17 -7 -13 -19 -28 -27 -34 -9 -7 -12 -16 -7 -24 5 -8 4 -11 -2 -7 -5 3
-17 -3 -26 -14 -9 -10 -15 -19 -12 -19 2 0 -6 -11 -18 -23 -35 -38 -72 -90
-70 -98 2 -4 -6 -11 -17 -14 -12 -4 -17 -12 -13 -22 4 -10 2 -14 -4 -10 -6 4
-19 -6 -28 -21 -10 -15 -24 -31 -32 -35 -7 -4 -13 -13 -13 -19 0 -6 -8 -17
-17 -25 -11 -9 -12 -12 -3 -7 9 4 7 -2 -5 -13 -11 -11 -24 -18 -29 -15 -5 3
-6 0 -2 -7 4 -6 0 -14 -8 -17 -9 -3 -14 -9 -11 -14 2 -4 -9 -20 -25 -35 -17
-16 -30 -35 -30 -42 0 -7 -5 -12 -12 -10 -7 1 -12 -4 -13 -11 0 -8 -9 -20 -19
-28 -11 -8 -16 -14 -11 -14 5 0 0 -8 -11 -19 -34 -33 -53 -59 -47 -65 4 -3 -2
-6 -11 -6 -12 0 -16 -5 -12 -16 3 -8 2 -12 -4 -9 -6 3 -15 -6 -20 -20 -5 -14
-14 -23 -20 -20 -5 3 -10 -1 -10 -11 0 -9 -10 -27 -22 -39 -13 -12 -31 -32
-40 -46 -22 -32 -68 -88 -90 -111 -10 -10 -18 -22 -18 -28 0 -5 -4 -10 -8 -10
-5 0 -17 -15 -27 -34 -11 -19 -23 -33 -27 -30 -4 3 -12 -5 -17 -18 -5 -13 -23
-38 -40 -55 -16 -18 -27 -33 -23 -33 4 0 -1 -5 -10 -11 -10 -5 -18 -17 -18
-25 0 -8 -4 -12 -10 -9 -5 3 -10 0 -10 -7 0 -7 -18 -33 -40 -56 -22 -24 -37
-49 -33 -54 3 -6 2 -8 -4 -5 -5 4 -16 -5 -23 -18 -7 -13 -17 -22 -22 -19 -5 3
-8 2 -7 -3 3 -20 -2 -34 -11 -28 -5 3 -10 -1 -10 -9 0 -9 -6 -16 -14 -16 -8 0
-13 -8 -12 -17 0 -10 -5 -17 -12 -15 -8 1 -11 -2 -8 -7 4 -5 -2 -14 -11 -20
-10 -6 -14 -11 -10 -11 4 0 2 -6 -5 -14 -7 -8 -17 -11 -22 -8 -5 3 -7 -2 -3
-11 3 -9 0 -18 -9 -21 -9 -3 -12 -11 -8 -17 4 -8 3 -9 -5 -5 -7 5 -16 -4 -24
-23 -9 -20 -17 -27 -23 -21 -6 6 -10 1 -12 -15 l-2 -24 327 -1 c180 0 329 -3
331 -5 3 -3 11 0 19 6 7 6 13 8 13 3 0 -5 175 -7 400 -4 220 3 400 1 400 -3 0
-5 4 -6 9 -3 4 3 148 6 319 6 l310 1 29 42 c15 23 31 44 36 45 4 2 7 8 7 13 0
9 21 37 53 71 9 10 14 18 11 18 -3 0 2 7 10 16 9 8 13 20 10 26 -4 6 -2 8 3 5
6 -4 16 0 23 8 7 8 9 15 4 15 -5 0 4 11 19 24 16 14 26 30 22 35 -3 6 0 11 8
11 8 0 17 9 20 21 4 13 10 18 18 13 8 -4 10 -3 5 5 -4 6 0 18 8 27 9 9 13 21
9 27 -4 7 2 5 13 -3 10 -8 16 -10 12 -6 -4 5 1 21 12 36 11 15 17 30 13 34 -3
3 1 6 10 6 9 0 17 7 17 15 0 8 5 15 12 15 6 0 9 3 6 6 -3 3 5 17 18 31 13 14
24 32 24 40 0 8 4 12 9 8 5 -3 12 4 16 15 3 11 11 20 17 20 6 0 9 3 5 6 -3 3
3 15 14 27 10 11 19 28 19 36 0 14 1 14 10 1 7 -11 10 -11 10 -2 0 12 32 63
58 90 7 8 9 18 6 24 -4 6 -3 8 3 5 5 -3 17 7 27 24 9 16 22 29 27 29 6 0 8 4
5 9 -4 5 10 25 29 45 19 20 35 40 35 44 1 4 12 19 26 34 13 15 24 31 24 35 1
5 14 23 30 42 16 19 26 39 23 44 -3 6 -2 8 3 5 9 -4 48 31 50 46 1 9 32 52 52
72 6 7 12 15 12 18 0 3 9 15 20 26 12 12 18 26 14 32 -4 6 -3 8 3 5 5 -3 18 8
28 26 10 18 24 36 32 40 7 4 13 12 13 17 0 9 19 36 48 65 6 8 12 18 12 22 0 5
14 24 31 41 17 18 28 32 24 32 -5 0 5 12 21 26 16 15 22 23 14 19 -8 -4 -4 3
10 14 14 11 21 21 17 21 -4 0 1 10 13 22 11 12 20 28 20 35 0 8 3 12 8 10 4
-3 13 1 20 9 7 8 9 14 5 14 -4 1 3 10 16 20 13 11 20 20 15 20 -4 0 2 10 14
23 12 13 19 27 15 30 -3 4 -3 7 2 7 8 0 55 -47 55 -55 0 -5 27 -40 53 -67 9
-10 14 -18 10 -18 -3 0 4 -9 17 -20 13 -11 20 -20 17 -20 -6 0 20 -34 51 -66
6 -7 12 -17 12 -22 0 -6 7 -13 16 -16 9 -4 14 -13 10 -22 -3 -8 -2 -13 3 -10
5 3 14 -1 21 -9 7 -8 9 -15 6 -15 -4 0 5 -11 19 -25 14 -14 25 -30 25 -36 0
-6 5 -7 12 -3 7 5 9 2 6 -8 -4 -8 2 -21 13 -29 10 -7 19 -19 19 -27 0 -7 4
-10 10 -7 5 3 12 -6 16 -20 3 -13 10 -22 15 -19 5 3 9 0 9 -5 0 -25 20 -52 33
-44 4 2 7 -2 7 -10 0 -8 9 -22 20 -32 11 -10 20 -23 20 -29 0 -6 9 -17 20 -24
11 -7 20 -17 20 -23 0 -7 9 -20 21 -30 11 -10 18 -23 14 -28 -3 -6 1 -11 9
-11 9 0 16 -6 16 -14 0 -8 13 -24 29 -37 16 -13 27 -27 24 -32 -3 -5 4 -15 16
-23 12 -8 21 -21 21 -29 0 -8 5 -17 12 -21 7 -5 8 -3 3 6 -5 9 -4 11 3 6 7 -4
12 -14 12 -22 0 -8 9 -22 20 -31 11 -10 20 -22 20 -28 0 -6 9 -17 20 -25 11
-8 20 -19 20 -25 0 -6 8 -18 18 -27 27 -26 42 -46 42 -58 0 -5 5 -10 10 -10 6
0 10 -7 10 -16 0 -8 5 -12 10 -9 6 3 10 -1 10 -9 0 -9 5 -16 10 -16 6 0 10 -6
10 -13 0 -7 8 -20 18 -29 20 -20 30 -31 62 -78 14 -19 34 -43 44 -52 10 -10
16 -18 12 -18 -4 0 6 -12 21 -28 15 -15 34 -40 42 -55 8 -15 18 -27 23 -27 5
0 7 -4 4 -9 -3 -5 1 -11 9 -15 8 -3 15 -12 15 -21 0 -8 7 -15 16 -15 8 0 13
-4 10 -9 -3 -5 1 -11 9 -15 8 -3 15 -13 15 -21 0 -9 5 -13 10 -10 6 3 10 -3
10 -15 0 -12 5 -18 10 -15 6 3 10 1 10 -5 0 -6 5 -8 13 -4 7 5 6 0 -3 -11 -9
-11 -10 -16 -2 -11 11 6 17 -5 13 -26 0 -5 6 -8 14 -8 8 0 22 -16 31 -35 9
-19 20 -33 24 -30 4 3 13 -8 20 -24 6 -16 18 -32 27 -35 8 -3 12 -9 10 -13 -3
-5 1 -13 8 -20 10 -9 71 -12 224 -10 116 1 211 0 211 -3 0 -3 144 -3 320 0
176 3 320 3 320 0 0 -7 459 -2 470 5 6 3 10 3 10 -2 0 -4 154 -7 342 -5 303 3
341 5 324 17 -11 8 -16 15 -10 15 5 0 1 5 -8 11 -10 5 -18 15 -18 22 0 7 -9
18 -21 25 -12 7 -19 16 -16 18 7 7 -44 60 -54 56 -5 -1 -8 1 -8 5 3 20 -2 34
-11 28 -5 -3 -10 1 -10 9 0 9 -5 16 -11 16 -5 0 -7 5 -4 10 3 6 -1 10 -9 10
-9 0 -16 4 -16 9 0 4 -12 22 -27 38 -49 53 -73 88 -73 103 0 13 -1 13 -10 0
-6 -10 -10 -11 -10 -3 0 12 -17 37 -47 68 -7 8 -13 19 -13 25 0 6 -4 8 -10 5
-9 -6 -14 8 -11 28 0 4 -5 7 -13 7 -8 0 -23 13 -32 29 -10 17 -21 28 -26 25
-4 -3 -5 2 -2 10 4 11 0 16 -10 16 -9 0 -16 6 -16 14 0 8 -11 23 -25 34 -13
11 -21 22 -18 26 3 3 -1 6 -10 6 -10 0 -16 3 -16 8 3 20 -2 32 -16 32 -8 0
-15 6 -15 13 0 7 -9 20 -20 30 -12 10 -18 23 -14 29 4 6 3 8 -4 4 -5 -3 -25
13 -44 36 -18 24 -36 45 -40 46 -5 2 -6 8 -2 13 3 5 -2 9 -10 9 -14 0 -20 12
-17 33 0 4 -4 7 -10 7 -6 0 -17 7 -25 15 -9 8 -13 15 -9 15 3 0 -8 14 -25 30
-17 17 -28 35 -25 40 3 6 -3 10 -14 10 -14 0 -19 5 -15 15 4 10 0 15 -11 15
-9 0 -13 5 -10 10 3 6 -1 10 -9 10 -9 0 -16 7 -16 15 0 8 -5 15 -11 15 -5 0
-8 4 -5 9 3 5 -6 17 -19 27 -14 10 -25 25 -25 32 0 7 -4 10 -10 7 -5 -3 -10 0
-10 7 0 7 -18 32 -39 55 -22 23 -37 44 -34 47 4 3 -1 6 -10 6 -9 0 -17 7 -17
15 0 8 -9 20 -20 27 -11 7 -20 16 -20 21 0 4 -10 19 -22 33 -13 13 -31 34 -40
44 -10 11 -18 25 -18 30 0 6 -7 10 -16 10 -8 0 -13 4 -10 8 3 5 -4 15 -15 22
-10 8 -19 20 -19 27 0 7 -5 13 -10 13 -6 0 -16 11 -22 25 -6 14 -18 25 -26 25
-9 0 -12 3 -9 6 4 4 -2 14 -12 23 -10 9 -23 26 -30 39 -7 12 -16 20 -21 17 -4
-3 -11 8 -15 25 -4 16 -11 30 -17 30 -10 0 -38 25 -38 34 0 12 -39 44 -46 38
-4 -4 -4 -1 0 5 8 15 -38 65 -50 55 -4 -4 -4 -1 0 6 5 8 -8 29 -37 57 -27 26
-41 46 -34 49 7 2 4 5 -5 5 -10 1 -18 5 -18 10 0 15 -51 66 -62 63 -5 -1 -7 2
-3 7 3 6 -7 24 -22 41 -15 16 -39 44 -53 62 -14 17 -35 42 -47 55 -12 13 -19
23 -16 23 3 0 -6 11 -21 25 -14 13 -26 29 -26 35 0 5 -7 10 -16 10 -8 0 -13 4
-10 8 3 5 -5 18 -17 30 -34 32 -46 49 -40 56 4 3 -1 6 -10 6 -15 0 -22 11 -18
33 0 4 -3 7 -9 7 -14 0 -61 50 -47 51 7 0 2 4 -10 9 -13 5 -23 17 -23 25 0 9
-4 13 -10 10 -9 -6 -14 8 -7 20 1 2 -13 15 -31 29 -22 16 -29 26 -20 29 8 4 7
6 -4 6 -10 1 -18 4 -18 9 0 4 -11 19 -24 34 -14 14 -22 29 -19 32 4 3 -1 6
-10 6 -10 0 -17 8 -17 20 0 11 -6 19 -12 17 -7 -1 -12 4 -11 11 2 6 -5 12 -14
12 -9 0 -13 3 -10 6 4 4 -1 14 -11 23 -10 9 -30 34 -45 56 -15 22 -27 35 -27
30 -1 -6 -8 2 -16 18 -8 15 -20 27 -26 27 -6 0 -9 3 -6 6 4 3 -9 21 -28 41
-19 19 -34 39 -34 44 0 5 -7 9 -16 9 -10 0 -14 6 -10 15 3 8 1 15 -5 15 -7 0
-8 7 -4 18 4 9 8 23 8 30 0 6 7 12 14 12 8 0 11 5 8 10 -3 6 2 10 11 10 10 0
14 3 11 7 -4 3 5 17 19 30 14 12 22 23 18 23 -3 0 8 14 26 30 18 17 29 30 25
30 -5 0 4 11 19 25 14 13 27 28 29 32 1 5 6 7 11 5 5 -2 6 4 3 12 -4 9 1 17
14 21 10 4 19 12 19 19 0 8 7 19 15 26 8 7 12 16 9 21 -3 5 3 6 13 2 10 -3 15
-3 11 2 -4 4 2 16 14 26 11 11 18 19 13 19 -4 0 3 9 16 20 13 10 21 19 17 20
-3 0 8 15 25 34 41 44 67 78 67 89 0 4 5 5 10 2 6 -3 10 -1 10 4 0 11 20 38
58 77 12 13 22 27 22 31 0 5 8 16 18 25 20 20 32 33 95 113 27 33 54 63 60 67
7 4 8 8 4 8 -4 0 -2 6 5 14 7 8 16 12 20 9 4 -2 5 4 1 13 -4 12 -3 15 5 10 7
-4 14 3 18 19 3 14 9 24 11 21 7 -7 33 20 33 33 0 6 5 11 11 11 5 0 7 5 4 10
-3 6 1 10 9 10 8 0 17 9 21 19 3 11 12 22 20 25 8 3 15 11 15 18 0 7 11 22 25
32 13 10 22 22 20 27 -3 4 4 13 15 19 11 6 17 16 14 22 -5 7 -2 9 8 5 10 -3
15 0 14 11 0 9 5 16 12 15 6 -2 12 3 12 10 0 8 20 36 44 63 24 27 42 52 40 56
-2 3 5 9 16 13 11 4 18 11 15 16 -4 5 1 12 9 15 9 3 16 13 16 21 0 8 5 11 10
8 6 -3 10 -1 10 6 0 6 12 23 28 37 15 13 20 21 12 17 -9 -4 -9 -1 3 8 9 8 17
19 17 25 0 6 9 14 20 17 11 4 18 10 15 15 -3 5 3 13 12 19 10 6 14 11 10 11
-4 0 3 11 17 24 15 13 26 28 26 34 0 6 9 14 20 17 11 4 18 10 15 14 -2 5 9 21
25 37 16 16 30 35 30 42 0 6 7 12 15 12 8 0 14 3 13 8 -4 12 26 52 39 52 7 0
10 7 6 17 -4 10 -2 14 4 10 11 -7 28 20 24 38 -2 5 0 7 4 3 9 -8 45 23 45 39
0 7 7 13 15 13 9 0 12 6 8 17 -4 11 -3 14 5 9 11 -6 17 5 13 27 0 4 6 7 15 7
8 0 12 5 9 10 -3 6 1 10 9 10 9 0 16 6 16 14 0 8 8 21 18 28 10 7 21 21 25 31
4 10 11 15 17 12 6 -4 7 1 3 11 -4 11 -2 15 4 11 6 -4 18 8 27 26 8 17 16 28
16 22 0 -5 6 0 13 12 7 12 28 39 47 60 19 21 35 41 35 45 0 5 4 8 9 7 5 0 14
10 21 23 6 13 17 22 24 20 7 -1 10 2 6 8 -6 10 -3 15 53 76 18 20 30 40 26 45
-3 5 -2 8 3 7 12 -4 55 41 48 52 -3 5 4 11 15 15 11 4 18 10 15 15 -3 4 2 10
10 14 8 3 15 13 15 23 0 15 2 16 10 3 8 -12 10 -12 10 -1 0 14 47 76 102 136
15 17 28 35 28 40 0 6 9 16 21 23 12 7 19 16 16 18 -3 3 10 21 29 39 19 19 34
39 34 44 0 12 -2185 16 -2214 5 -9 -3 -16 -12 -16 -19 0 -7 -7 -16 -16 -19 -8
-3 -12 -10 -9 -16 3 -6 -1 -13 -9 -16 -9 -3 -16 -12 -16 -20 0 -8 -4 -14 -9
-14 -5 0 -13 -9 -16 -20 -4 -11 -11 -17 -17 -14 -7 5 -8 2 -3 -6 5 -7 -1 -20
-16 -34 -13 -11 -25 -28 -27 -36 -2 -8 -10 -19 -18 -23 -8 -4 -14 -12 -14 -18
0 -10 -10 -24 -42 -60 -10 -10 -18 -22 -19 -26 -1 -5 -6 -7 -12 -5 -7 2 -9 0
-5 -4 4 -4 3 -13 -3 -21 -6 -7 -8 -13 -5 -13 4 0 -7 -14 -25 -31 -17 -17 -29
-33 -26 -36 3 -3 -5 -15 -18 -28 -14 -12 -22 -25 -18 -28 3 -4 1 -7 -5 -7 -7
0 -18 -16 -26 -35 -8 -19 -18 -35 -21 -35 -3 0 -3 5 1 12 4 7 3 8 -4 4 -7 -4
-12 -13 -12 -20 0 -7 -9 -23 -20 -36 -11 -13 -20 -27 -20 -32 0 -5 -5 -6 -12
-2 -6 4 -8 3 -4 -4 3 -6 -1 -17 -9 -25 -8 -9 -15 -20 -15 -26 0 -6 -7 -11 -16
-11 -8 0 -13 -4 -9 -9 3 -5 -1 -15 -8 -23 -14 -13 -17 -21 -17 -38 0 -5 -7
-10 -15 -10 -8 0 -15 -7 -15 -15 0 -9 -7 -18 -15 -21 -8 -4 -12 -10 -9 -15 3
-5 1 -9 -4 -9 -5 0 -12 -9 -15 -21 -4 -13 -10 -18 -18 -14 -7 5 -10 3 -7 -6 4
-13 -1 -22 -34 -59 -9 -10 -19 -28 -23 -39 -3 -12 -11 -19 -16 -16 -5 4 -9 -1
-9 -9 0 -8 -9 -20 -20 -26 -11 -6 -18 -16 -14 -21 3 -6 -6 -21 -19 -33 -14
-13 -23 -27 -20 -30 4 -3 2 -6 -4 -6 -6 0 -14 -12 -18 -27 -5 -21 -8 -24 -16
-12 -7 12 -9 11 -9 -3 0 -27 -2 -31 -30 -56 -14 -13 -18 -21 -10 -17 8 4 6 -1
-5 -10 -11 -9 -20 -21 -20 -28 -1 -7 -7 -11 -15 -9 -8 2 -12 0 -8 -3 11 -11
-11 -47 -24 -39 -7 4 -8 3 -4 -4 4 -6 -2 -19 -14 -29 -11 -10 -20 -23 -20 -30
0 -7 -4 -13 -10 -13 -5 0 -10 -7 -10 -15 0 -8 -4 -15 -10 -15 -5 0 -10 -6 -10
-13 0 -7 -9 -20 -20 -30 -12 -10 -18 -22 -15 -27 3 -5 -4 -11 -15 -15 -11 -4
-18 -10 -15 -15 3 -5 -3 -17 -14 -27 -10 -10 -26 -33 -35 -50 -9 -18 -21 -33
-26 -33 -6 0 -10 -7 -10 -15 0 -22 -38 -18 -45 5 -3 11 -11 20 -16 20 -6 0 -7
5 -4 10 3 6 -1 10 -9 10 -14 0 -18 6 -15 26 0 3 -9 14 -20 23 -11 10 -18 21
-14 25 3 3 -1 6 -11 6 -9 0 -14 5 -11 10 3 6 -1 13 -9 16 -9 3 -14 10 -11 14
3 4 -2 11 -11 14 -8 3 -12 10 -9 16 3 5 1 10 -5 10 -6 0 -14 8 -17 17 -4 10
-17 28 -29 40 -12 12 -25 32 -29 43 -4 11 -11 18 -16 15 -5 -4 -9 -1 -9 5 0 6
-6 18 -12 25 -30 33 -38 45 -33 45 3 0 -6 12 -20 26 -14 14 -22 31 -19 37 4 7
4 9 -1 5 -10 -9 -30 12 -39 40 -4 12 -15 22 -23 22 -9 0 -14 3 -10 6 3 3 1 11
-4 18 -41 49 -48 60 -42 69 3 5 2 7 -4 4 -6 -4 -19 9 -29 28 -10 19 -25 35
-33 35 -8 0 -12 3 -8 6 3 3 1 11 -4 18 -28 33 -89 121 -89 128 0 5 -4 6 -10 3
-5 -3 -10 -1 -10 5 0 6 -20 38 -45 70 -25 32 -45 64 -45 71 0 7 -3 9 -7 6 -3
-4 -17 11 -30 33 -14 22 -29 38 -34 34 -5 -3 -9 -2 -8 3 4 14 -24 63 -32 57
-5 -3 -9 4 -9 16 0 12 -4 18 -10 15 -5 -3 -10 3 -10 15 0 12 -4 19 -9 16 -8
-5 -16 5 -20 26 -3 14 -46 54 -53 51 -4 -2 -5 4 -1 13 4 12 3 15 -5 10 -7 -4
-12 -1 -12 8 0 9 -7 24 -16 34 -63 71 -73 85 -68 93 3 5 -2 9 -11 9 -9 0 -13
5 -10 10 3 6 -1 10 -10 10 -9 0 -14 4 -10 10 3 5 -2 18 -12 29 -34 37 -43 50
-43 61 0 6 -4 8 -10 5 -5 -3 -10 1 -10 9 0 9 -4 16 -10 16 -5 0 -10 5 -10 10
0 6 -5 16 -10 23 -39 46 -50 61 -50 69 0 4 -502 8 -1116 8 -933 0 -1115 -2
-1105 -13z"/>
<path d="M6262 13875 c4 -7 -18 -11 -65 -10 -40 0 -86 -2 -104 -6 -17 -4 -36
-2 -41 3 -6 6 -15 3 -26 -7 -9 -9 -16 -11 -16 -5 0 13 -42 9 -52 -5 -5 -6 -8
-6 -8 2 0 12 -17 12 -37 0 -8 -5 -13 -3 -13 4 0 7 -8 5 -22 -7 -12 -10 -18
-14 -15 -7 9 15 -14 23 -36 11 -9 -5 -22 -6 -27 -3 -6 3 -10 1 -10 -6 0 -8 -5
-7 -17 2 -11 10 -14 10 -9 2 4 -8 1 -13 -9 -13 -10 0 -13 5 -9 13 6 8 3 8 -9
-1 -9 -8 -24 -12 -34 -10 -10 2 -24 -3 -31 -12 -8 -8 -11 -10 -8 -4 3 7 -1 15
-9 18 -9 3 -18 -1 -22 -10 -5 -13 -7 -13 -14 -2 -7 10 -9 10 -9 1 0 -7 -7 -13
-16 -13 -9 0 -13 5 -9 13 4 6 -1 3 -9 -7 -9 -11 -16 -16 -16 -10 0 5 -13 9
-29 9 -16 0 -27 -4 -24 -8 3 -5 -5 -7 -18 -6 -13 2 -30 0 -38 -5 -8 -5 -16 -4
-21 4 -6 10 -9 9 -12 -1 -3 -8 -23 -14 -53 -16 -27 -1 -52 -8 -57 -15 -6 -10
-8 -9 -8 2 0 10 -3 11 -8 4 -4 -6 -15 -10 -24 -8 -10 1 -18 -2 -18 -8 0 -6 -7
-4 -17 3 -9 8 -14 9 -10 3 4 -7 -2 -14 -13 -17 -12 -3 -18 -1 -14 5 4 6 -2 5
-15 -1 -11 -6 -38 -12 -60 -14 -21 -1 -36 -6 -33 -11 3 -5 -2 -7 -11 -3 -10 3
-17 2 -17 -4 0 -6 -4 -7 -10 -4 -5 3 -10 0 -10 -7 0 -10 -2 -10 -8 -1 -5 8
-13 9 -22 3 -8 -6 -25 -10 -38 -10 -15 0 -21 -4 -16 -12 4 -6 3 -8 -3 -5 -5 3
-27 1 -49 -4 -21 -6 -45 -11 -51 -11 -7 -1 -13 -4 -13 -8 0 -3 -8 -7 -17 -8
-50 -5 -68 -11 -65 -21 2 -9 -3 -9 -19 0 -17 9 -20 8 -14 -2 6 -9 3 -11 -8 -6
-10 3 -17 2 -17 -4 0 -6 -4 -8 -10 -4 -5 3 -17 1 -27 -4 -17 -9 -48 -21 -65
-26 -5 -2 -10 -4 -13 -5 -3 -1 -9 -4 -15 -5 -5 -1 -13 -4 -17 -5 -5 -1 -11 -2
-15 -1 -5 0 -8 -3 -8 -8 0 -5 -16 -12 -35 -15 -19 -4 -35 -11 -35 -16 0 -5 -9
-7 -20 -5 -11 2 -20 0 -20 -5 0 -5 -16 -12 -35 -16 -19 -3 -39 -13 -43 -21 -5
-8 -19 -15 -33 -17 -14 -1 -31 -6 -39 -11 -8 -6 -17 -10 -20 -11 -25 -5 -69
-32 -63 -39 5 -4 3 -5 -3 -2 -13 7 -68 -16 -98 -42 -16 -13 -18 -13 -12 -1 7
13 6 13 -6 0 -7 -8 -22 -16 -33 -18 -11 -2 -25 -10 -31 -18 -6 -8 -19 -14 -28
-14 -9 0 -16 -5 -16 -12 0 -6 -3 -9 -6 -5 -4 3 -13 -1 -21 -9 -9 -8 -22 -13
-30 -10 -8 3 -12 2 -10 -2 6 -9 -19 -33 -27 -25 -3 4 -6 1 -6 -5 0 -7 -3 -11
-7 -10 -13 3 -63 -25 -63 -35 0 -5 -7 -7 -15 -3 -8 3 -14 0 -12 -6 1 -7 -2
-13 -8 -13 -18 -2 -85 -47 -85 -57 0 -5 -4 -7 -9 -4 -5 3 -14 -1 -21 -9 -7 -8
-16 -12 -21 -9 -5 3 -9 -2 -9 -11 0 -9 -4 -14 -9 -10 -6 3 -14 -3 -20 -12 -6
-10 -11 -13 -11 -8 0 6 -10 -1 -21 -15 -11 -14 -18 -18 -14 -10 4 8 -3 4 -14
-9 -12 -13 -21 -20 -21 -17 0 4 -6 2 -12 -4 -56 -47 -73 -58 -80 -54 -5 3 -7
0 -6 -8 2 -7 -5 -12 -14 -12 -10 1 -17 -1 -16 -5 2 -19 -3 -31 -12 -26 -5 3
-26 -10 -45 -30 -20 -19 -38 -35 -42 -35 -3 0 -20 -14 -37 -30 -79 -78 -117
-110 -127 -110 -5 0 -8 -4 -5 -8 3 -5 -6 -15 -19 -22 -14 -7 -25 -18 -25 -24
0 -6 -18 -24 -40 -40 -22 -17 -40 -36 -40 -43 0 -7 -5 -13 -10 -13 -10 0 -48
-34 -52 -47 -2 -5 -6 -7 -10 -6 -4 2 -10 -6 -13 -17 -4 -11 -13 -20 -21 -20
-8 0 -12 -4 -9 -10 3 -5 -5 -15 -19 -21 -13 -6 -22 -17 -19 -24 2 -7 -5 -16
-17 -20 -12 -4 -19 -9 -16 -12 3 -3 -15 -26 -39 -50 -44 -43 -57 -62 -33 -47
7 4 8 3 4 -4 -4 -7 -14 -12 -22 -12 -8 0 -14 -7 -14 -16 0 -8 -4 -12 -10 -9
-5 3 -10 -1 -10 -9 0 -9 -5 -16 -12 -16 -6 0 -9 -3 -6 -6 8 -7 -34 -50 -45
-46 -5 1 -6 -2 -2 -7 6 -11 -9 -31 -63 -89 -18 -19 -25 -32 -16 -28 12 5 11 1
-5 -16 -41 -45 -61 -71 -66 -89 -4 -11 -10 -19 -14 -19 -5 0 -14 -14 -21 -30
-7 -17 -22 -37 -34 -45 -11 -8 -17 -15 -12 -15 5 0 3 -7 -4 -15 -7 -8 -9 -15
-4 -15 5 0 1 -5 -8 -11 -10 -5 -18 -16 -18 -23 0 -8 -7 -17 -16 -20 -9 -4 -14
-13 -10 -21 3 -8 2 -15 -3 -15 -5 0 -14 -13 -21 -30 -7 -16 -16 -30 -20 -30
-7 0 -19 -28 -24 -52 0 -4 -9 -17 -19 -29 -10 -11 -19 -29 -20 -39 -1 -10 -5
-16 -11 -13 -5 4 -7 -1 -3 -11 4 -10 3 -15 -3 -11 -5 3 -14 -12 -21 -34 -7
-23 -16 -38 -22 -34 -6 4 -8 0 -4 -10 3 -9 1 -20 -6 -24 -7 -5 -12 -15 -12
-23 0 -8 -6 -14 -14 -12 -11 2 -12 0 -2 -11 9 -12 8 -16 -4 -21 -8 -3 -15 -12
-15 -21 0 -9 -7 -27 -16 -40 -9 -14 -12 -25 -8 -25 5 0 0 -7 -10 -15 -11 -9
-14 -15 -7 -15 8 0 7 -5 -4 -16 -9 -9 -14 -23 -11 -31 3 -7 -1 -16 -9 -19 -8
-4 -13 -9 -10 -13 2 -4 -3 -20 -10 -35 -8 -16 -13 -32 -10 -36 3 -4 -2 -11
-11 -14 -8 -3 -13 -10 -10 -14 3 -5 -1 -20 -9 -35 -7 -14 -11 -28 -7 -31 3 -3
0 -6 -6 -6 -6 0 -9 -7 -6 -15 4 -9 0 -15 -7 -15 -11 0 -11 -2 1 -10 12 -8 12
-10 -3 -16 -9 -3 -14 -10 -11 -15 3 -5 0 -9 -7 -9 -9 0 -9 -3 0 -14 9 -11 8
-17 -2 -28 -15 -15 -31 -62 -31 -95 0 -12 -4 -20 -8 -17 -4 3 -9 0 -9 -5 -1
-6 -3 -14 -4 -18 -1 -5 -5 -27 -10 -50 -4 -24 -11 -43 -15 -43 -4 0 -6 -13 -5
-30 1 -16 -2 -27 -7 -24 -4 3 -8 2 -9 -3 -1 -4 -3 -28 -5 -52 -2 -25 -8 -47
-12 -50 -5 -3 -8 -16 -7 -28 1 -13 -2 -23 -6 -23 -4 0 -6 -8 -4 -17 1 -10 0
-22 -4 -28 -7 -12 -8 -18 -10 -51 -1 -17 -5 -23 -13 -18 -9 5 -9 2 1 -9 7 -9
9 -17 4 -17 -5 0 -10 -6 -10 -12 0 -7 -4 -33 -7 -58 -4 -25 -8 -55 -9 -67 -2
-12 -6 -25 -9 -28 -4 -4 -4 -14 -1 -22 3 -8 0 -19 -8 -24 -12 -7 -12 -9 0 -9
11 0 11 -3 0 -17 -12 -15 -12 -16 1 -8 13 8 13 6 1 -8 -7 -9 -11 -24 -7 -32 3
-8 1 -15 -4 -15 -6 0 -10 -5 -10 -11 0 -5 5 -7 11 -3 6 3 3 -8 -6 -26 -10 -20
-12 -29 -4 -25 8 6 10 4 4 -5 -4 -7 -10 -42 -12 -78 -2 -37 -10 -73 -16 -81
-9 -12 -9 -13 1 -7 7 4 12 1 12 -9 0 -10 -5 -13 -12 -9 -9 5 -9 2 1 -9 11 -14
11 -17 0 -17 -11 0 -11 -2 1 -10 8 -5 10 -10 4 -10 -6 0 -10 -20 -10 -50 1
-27 -2 -50 -7 -50 -4 0 -5 -6 0 -12 12 -20 12 -37 1 -45 -7 -4 -8 -1 -3 7 5 9
4 11 -4 6 -9 -6 -9 -11 0 -22 9 -11 8 -18 -2 -31 -12 -15 -12 -16 5 -10 15 6
17 5 8 -6 -6 -7 -10 -23 -7 -35 2 -12 -1 -22 -6 -22 -6 0 -6 -7 1 -19 6 -12 6
-22 1 -26 -6 -3 -6 -17 -1 -35 5 -18 5 -32 -1 -36 -5 -3 -7 -9 -4 -14 3 -5 6
-89 6 -187 1 -115 6 -183 13 -192 8 -11 8 -13 -2 -7 -10 6 -11 -1 -7 -31 4
-21 7 -60 8 -88 2 -27 6 -55 10 -62 4 -6 3 -15 -3 -18 -7 -4 -8 -11 -1 -18 5
-7 10 -28 10 -47 2 -61 8 -114 16 -134 6 -14 5 -17 -4 -11 -10 6 -11 3 -1 -15
6 -12 9 -28 6 -36 -3 -9 -1 -12 4 -9 6 3 10 -1 10 -10 0 -9 -5 -13 -11 -9 -8
5 -8 1 0 -13 6 -11 7 -23 4 -27 -3 -3 -1 -6 7 -6 10 0 10 -4 -1 -17 -8 -9 -9
-14 -3 -10 11 6 23 -57 27 -140 1 -17 6 -29 11 -25 5 3 7 -2 3 -11 -4 -10 -1
-17 6 -17 8 0 6 -4 -3 -10 -12 -8 -12 -10 -1 -10 8 0 11 -7 8 -20 -3 -11 -1
-20 3 -20 4 0 6 -9 3 -20 -3 -11 -1 -20 5 -20 6 0 9 -9 7 -20 -2 -11 2 -20 8
-20 7 0 6 -4 -3 -10 -11 -7 -11 -10 -2 -10 7 0 10 -5 7 -10 -4 -6 -2 -17 4
-24 6 -7 13 -26 15 -42 2 -16 7 -37 11 -47 4 -10 5 -21 1 -24 -3 -4 0 -13 7
-22 19 -22 30 -54 16 -45 -6 3 -6 -3 2 -17 28 -54 30 -61 21 -55 -6 3 -8 -2
-5 -14 3 -11 10 -17 16 -13 6 4 8 0 4 -10 -3 -10 -2 -17 3 -17 5 0 7 -7 4 -15
-3 -8 3 -31 15 -51 12 -19 16 -32 10 -28 -6 3 -3 -5 6 -19 9 -15 14 -31 11
-36 -4 -5 2 -14 11 -20 14 -8 15 -11 3 -11 -12 -1 -12 -3 2 -14 10 -7 19 -25
20 -40 1 -14 6 -26 11 -26 4 0 6 -4 2 -9 -3 -5 -1 -12 4 -16 6 -3 8 -12 4 -20
-3 -9 1 -15 10 -15 10 0 15 -7 12 -20 -2 -11 1 -20 6 -20 6 0 7 -4 4 -10 -3
-5 -1 -10 5 -10 6 0 8 -4 5 -10 -3 -5 0 -10 7 -10 9 0 9 -3 -2 -10 -11 -7 -11
-10 -2 -10 12 0 39 -56 34 -72 -1 -5 2 -8 8 -8 5 0 10 -7 10 -15 0 -8 4 -15
10 -15 5 0 7 -7 4 -15 -4 -8 -2 -15 4 -15 10 0 38 -60 34 -72 -1 -5 2 -8 6 -8
5 0 17 -19 28 -42 10 -24 21 -45 24 -48 3 -3 14 -21 23 -40 10 -19 23 -44 30
-54 6 -11 27 -45 46 -75 19 -31 38 -59 43 -62 6 -3 10 -10 11 -15 1 -15 31
-64 54 -92 13 -15 23 -31 23 -36 0 -5 10 -17 22 -27 11 -11 17 -19 13 -19 -4
0 2 -9 15 -20 13 -11 19 -20 14 -20 -5 0 -1 -7 9 -14 10 -8 19 -18 20 -23 1
-9 5 -14 42 -56 14 -15 25 -35 25 -43 0 -8 4 -13 9 -10 9 6 26 -22 22 -37 -1
-5 2 -6 7 -3 10 6 43 -30 35 -38 -4 -3 1 -6 11 -6 9 0 14 -4 11 -10 -3 -5 -2
-10 4 -10 5 0 13 -9 16 -20 4 -11 11 -18 16 -15 5 4 9 -1 9 -9 0 -9 7 -16 16
-16 8 0 13 -4 10 -8 -3 -5 4 -14 14 -22 10 -8 17 -17 14 -22 -5 -7 10 -12 29
-9 4 0 6 -2 5 -6 -3 -15 14 -43 23 -37 5 3 9 1 9 -4 0 -14 36 -52 49 -52 6 0
11 -5 11 -11 0 -12 125 -135 152 -150 10 -6 16 -14 13 -20 -4 -5 -1 -9 4 -9 6
0 21 -9 34 -20 12 -12 29 -27 38 -35 9 -8 21 -15 28 -15 7 0 10 -4 7 -9 -3 -5
1 -14 9 -21 8 -7 15 -9 15 -4 0 5 5 1 11 -8 5 -10 17 -18 25 -18 8 0 12 -4 9
-10 -5 -9 1 -12 21 -9 4 0 15 -12 25 -28 10 -15 19 -24 19 -20 0 4 6 3 12 -3
56 -47 73 -58 81 -53 6 3 8 2 5 -3 -5 -8 23 -43 29 -36 9 7 21 -1 31 -20 6
-13 11 -17 11 -9 1 9 9 6 24 -10 13 -13 28 -25 35 -27 7 -1 21 -11 32 -22 12
-12 25 -18 29 -15 5 2 12 -2 15 -11 3 -8 10 -12 16 -9 5 3 10 2 10 -3 0 -5 15
-17 34 -26 18 -8 39 -22 46 -31 7 -8 21 -15 31 -15 10 0 24 -9 32 -20 8 -11
17 -17 21 -13 4 4 10 3 14 -2 9 -13 29 -25 122 -71 41 -21 77 -42 78 -46 2 -5
8 -6 13 -2 5 3 9 0 9 -7 0 -7 3 -9 6 -6 4 4 31 -7 60 -23 30 -16 54 -27 54
-24 0 2 10 -2 23 -11 13 -8 27 -12 30 -8 4 3 7 1 7 -5 0 -6 13 -13 30 -17 17
-4 30 -11 30 -17 0 -6 3 -9 6 -5 4 3 24 -3 46 -14 21 -11 43 -17 48 -14 6 3
10 2 10 -2 0 -10 58 -33 84 -33 9 0 14 -4 11 -10 -3 -6 4 -10 17 -10 13 0 29
-5 36 -12 7 -7 12 -9 12 -5 0 4 14 1 30 -8 17 -9 30 -13 30 -9 0 4 7 1 15 -6
8 -7 15 -9 15 -4 0 4 5 3 12 -4 7 -7 20 -12 31 -12 11 0 15 -5 11 -11 -5 -8
-1 -8 14 0 17 9 23 8 30 -5 5 -10 16 -15 24 -11 9 3 29 -3 45 -13 22 -13 34
-15 48 -8 13 8 16 7 11 -1 -6 -9 7 -16 17 -8 2 1 12 -5 22 -13 17 -13 18 -13
10 0 -8 13 -6 13 8 2 9 -8 21 -11 27 -7 5 3 10 1 10 -6 0 -7 3 -10 6 -7 3 4
20 1 37 -7 18 -7 38 -10 45 -8 6 3 12 0 12 -7 0 -6 6 -10 13 -9 29 4 48 -2 41
-12 -4 -8 0 -8 15 0 11 7 21 8 21 3 0 -5 10 -8 23 -8 12 1 28 -2 34 -7 7 -5
19 -7 26 -4 7 3 21 -1 30 -8 10 -7 27 -11 37 -8 12 3 20 0 20 -7 0 -7 8 -10
20 -7 11 3 20 1 20 -4 0 -5 5 -9 11 -9 6 0 7 6 2 12 -4 7 5 5 20 -5 15 -10 27
-13 27 -7 0 7 5 8 13 3 13 -8 34 -14 57 -15 8 -1 18 -6 22 -12 5 -8 8 -7 8 2
0 10 5 10 20 2 11 -6 20 -8 20 -5 0 3 10 1 21 -6 17 -9 20 -8 13 3 -6 11 -5
11 9 -1 9 -7 17 -10 17 -6 0 4 8 1 17 -6 15 -12 16 -12 8 1 -7 12 -6 13 6 4 8
-6 22 -10 32 -9 9 2 17 0 17 -4 0 -4 14 -5 31 -3 24 3 30 1 24 -8 -6 -9 -3 -9
15 0 15 8 25 9 29 2 4 -6 19 -9 34 -8 15 2 30 -1 33 -6 3 -4 9 -6 14 -3 5 3
18 1 28 -4 13 -7 22 -7 30 1 7 7 12 8 12 2 0 -9 5 -10 123 -15 37 -2 67 -7 67
-11 0 -3 19 -6 43 -6 88 1 157 -5 157 -14 0 -5 5 -6 10 -3 6 4 8 12 4 18 -3 7
1 4 9 -6 11 -13 17 -15 22 -7 6 9 10 9 16 -1 7 -11 9 -11 9 -1 0 7 5 10 11 6
7 -4 39 -8 73 -9 34 -1 67 -5 74 -9 7 -4 12 -2 12 4 0 8 6 8 20 0 13 -7 20 -7
20 -1 0 6 6 8 14 5 8 -3 72 -6 143 -7 70 -1 134 -6 142 -11 9 -6 12 -5 8 0 -8
14 176 13 185 0 5 -8 8 -7 8 1 0 8 22 12 65 12 36 0 69 2 74 6 5 3 13 1 16 -5
5 -8 14 -6 30 4 15 10 26 12 30 6 4 -7 13 -7 25 0 13 7 21 7 25 0 5 -8 11 -7
21 1 11 9 14 9 14 0 0 -7 5 -9 13 -4 12 7 35 10 125 12 24 1 41 5 38 9 -3 5 1
9 9 9 8 0 12 -4 9 -9 -3 -4 1 -8 10 -8 8 0 17 6 20 13 5 9 7 9 12 0 4 -10 11
-10 26 -2 11 6 31 9 44 6 13 -2 24 -1 24 3 0 4 11 6 25 5 14 -2 28 1 31 7 4 6
10 5 15 -3 7 -11 11 -12 17 -1 5 8 16 10 27 6 11 -4 16 -3 12 2 -3 5 12 9 34
8 22 0 42 3 45 8 3 5 13 3 22 -4 13 -11 14 -11 8 0 -6 11 0 13 25 11 19 -1 42
2 51 6 9 4 21 4 27 1 5 -4 12 -2 16 4 4 6 11 8 16 5 5 -4 9 -1 9 6 0 9 3 9 14
0 11 -9 18 -8 30 5 13 12 20 13 30 5 10 -8 16 -9 21 -1 3 5 16 10 29 10 12 0
28 6 35 13 11 10 12 9 6 -1 -6 -11 -3 -12 14 -3 12 7 26 9 31 6 6 -3 10 -1 10
6 0 7 3 9 7 6 3 -4 13 -1 21 6 13 10 14 9 8 -1 -7 -11 -4 -12 12 -3 11 6 29
11 39 11 10 0 30 6 45 14 19 10 29 11 37 3 8 -8 11 -6 11 9 0 14 2 16 9 5 6
-10 10 -10 16 -1 6 9 10 9 16 -1 5 -9 9 -10 9 -3 0 14 40 26 115 36 11 2 23 6
26 10 3 5 17 9 32 10 15 1 27 6 27 10 0 4 9 5 20 3 11 -2 20 1 20 6 0 6 8 10
18 9 24 -3 62 11 62 22 0 5 5 6 10 3 6 -4 18 -1 27 7 14 11 16 11 8 -2 -7 -12
-6 -13 7 -3 8 7 18 10 21 6 4 -3 7 -2 7 4 0 6 18 13 40 17 22 3 40 10 40 16 0
5 9 7 20 5 11 -2 20 -1 20 3 0 7 85 37 105 37 6 0 16 6 23 13 8 7 17 10 22 7
5 -3 11 -1 15 5 3 5 17 10 31 10 14 0 23 4 20 8 -3 5 17 14 44 21 28 7 50 17
50 22 0 5 7 9 15 9 22 0 189 71 197 84 4 6 8 7 8 2 0 -5 6 -3 13 3 8 6 17 8
20 4 4 -3 7 -1 7 6 0 7 4 10 9 6 5 -3 17 2 25 11 9 8 16 12 16 8 0 -5 5 -3 12
4 7 7 20 12 30 12 10 0 18 5 18 11 0 6 7 8 16 5 9 -3 12 -2 9 4 -4 6 7 13 24
16 17 4 31 11 31 16 0 5 5 6 10 3 6 -3 10 -1 10 5 0 7 7 9 15 6 9 -3 18 1 22
9 3 10 12 13 23 10 10 -3 21 -1 25 4 4 7 -1 8 -11 4 -11 -4 -15 -2 -11 4 4 6
23 14 42 17 20 4 38 13 41 21 3 8 12 11 20 8 8 -3 14 0 14 6 0 6 9 11 21 11
11 0 17 5 14 10 -3 6 1 10 9 10 9 0 16 4 16 10 0 5 7 7 15 4 8 -4 15 -1 15 6
0 6 5 8 10 5 6 -3 10 -2 10 3 0 6 11 13 25 16 14 4 23 11 20 16 -5 9 15 15 38
11 4 0 7 3 7 9 0 5 7 10 16 10 8 0 12 5 8 11 -4 8 1 9 16 4 14 -4 20 -3 16 3
-5 9 10 20 32 22 4 1 11 8 15 16 5 8 12 12 18 9 5 -4 9 -1 9 6 0 7 3 10 6 6 4
-3 13 1 21 9 8 8 19 11 25 8 7 -4 8 -2 4 4 -6 11 -1 14 20 11 3 0 14 9 23 20
10 11 21 18 25 14 3 -3 6 -2 6 4 0 10 36 27 53 24 5 -1 6 3 3 8 -4 5 7 15 23
22 16 7 27 18 24 23 -4 5 1 7 10 3 10 -3 17 -2 17 4 0 5 11 14 25 19 14 5 25
14 25 19 0 5 10 13 22 17 12 3 27 12 33 18 7 8 10 283 9 921 -1 501 -2 914 -3
918 0 4 -12 -4 -26 -18 -14 -14 -30 -25 -36 -25 -6 0 -7 -4 -4 -10 3 -5 1 -10
-5 -10 -17 0 -40 -26 -32 -35 4 -5 2 -5 -4 -2 -6 4 -19 -2 -29 -13 -10 -11
-24 -20 -32 -20 -8 0 -12 -4 -8 -9 3 -5 -4 -12 -15 -16 -11 -4 -18 -10 -15
-15 3 -5 -4 -11 -15 -15 -11 -3 -20 -11 -20 -16 0 -6 -4 -8 -8 -5 -5 3 -15 -4
-22 -15 -8 -10 -18 -19 -22 -19 -4 0 -19 -11 -33 -26 -14 -14 -30 -22 -37 -18
-7 4 -8 3 -4 -4 4 -6 -5 -17 -22 -26 -16 -8 -34 -22 -41 -30 -7 -9 -17 -13
-22 -10 -5 3 -9 -3 -9 -12 0 -10 -3 -14 -6 -11 -4 4 -15 -3 -25 -15 -11 -11
-19 -18 -19 -15 0 4 -11 -3 -24 -14 -13 -12 -27 -20 -31 -19 -4 1 -15 -8 -24
-19 -10 -12 -21 -21 -23 -21 -15 0 -136 -89 -130 -96 4 -4 2 -4 -5 0 -6 3 -22
-4 -34 -16 -12 -13 -18 -16 -14 -8 4 8 -7 2 -25 -15 -18 -16 -30 -23 -26 -15
4 8 -2 4 -13 -9 -12 -13 -21 -20 -21 -16 0 3 -13 -3 -29 -14 -16 -12 -34 -21
-40 -21 -6 0 -11 -5 -11 -11 0 -6 -7 -9 -15 -5 -9 3 -15 0 -15 -10 0 -8 -4
-13 -9 -10 -4 3 -19 -3 -31 -14 -22 -19 -35 -24 -52 -21 -5 0 -8 -4 -8 -10 0
-5 -4 -8 -9 -5 -5 3 -12 -1 -15 -10 -3 -8 -10 -12 -16 -9 -6 3 -13 -1 -16 -9
-3 -9 -10 -14 -14 -11 -5 3 -11 1 -15 -5 -3 -5 -15 -10 -25 -10 -10 0 -20 -5
-22 -11 -2 -5 -12 -11 -21 -13 -10 -1 -23 -9 -28 -17 -5 -8 -9 -11 -9 -7 0 4
-16 -1 -35 -12 -20 -11 -42 -20 -51 -20 -8 0 -17 -7 -20 -15 -4 -8 -10 -13
-14 -10 -5 3 -23 -3 -41 -14 -18 -11 -36 -18 -41 -15 -4 3 -8 0 -8 -5 0 -6 -3
-10 -7 -9 -7 1 -48 -15 -113 -44 -60 -27 -150 -55 -156 -49 -4 3 -4 0 0 -6 5
-9 -2 -13 -23 -13 -17 0 -31 -5 -31 -10 0 -6 -6 -10 -12 -8 -7 1 -23 -3 -36
-10 -12 -7 -27 -10 -32 -7 -5 3 -11 1 -15 -5 -4 -6 -11 -8 -16 -5 -5 4 -9 1
-9 -4 0 -6 -3 -10 -7 -10 -5 1 -10 0 -13 -1 -3 -1 -12 -3 -20 -5 -8 -2 -26 -7
-40 -10 -14 -4 -31 -7 -37 -7 -7 -1 -13 -4 -13 -8 0 -4 -6 -7 -12 -8 -34 -2
-65 -9 -75 -15 -6 -4 -23 -8 -37 -9 -14 -1 -26 -6 -26 -10 0 -4 -9 -5 -20 -3
-11 2 -20 -1 -20 -7 0 -6 -3 -8 -7 -5 -3 4 -13 1 -21 -6 -13 -10 -14 -9 -7 2
6 10 4 12 -5 6 -12 -8 -55 -16 -92 -18 -9 -1 -14 -6 -11 -11 4 -5 0 -7 -8 -4
-8 3 -23 2 -34 -2 -11 -4 -26 -3 -34 4 -11 8 -13 8 -7 -1 4 -7 4 -14 -1 -14
-4 -1 -21 -3 -38 -5 -69 -8 -93 -12 -103 -18 -6 -3 -14 -2 -17 4 -5 8 -11 8
-20 0 -8 -6 -32 -12 -54 -13 -23 -1 -41 -5 -41 -8 0 -9 -21 -6 -39 5 -9 6 -12
5 -8 -1 4 -7 -8 -11 -31 -12 -100 -2 -122 -5 -122 -13 0 -5 -5 -6 -11 -3 -6 4
-28 8 -50 9 -30 2 -38 -1 -35 -11 4 -10 1 -11 -12 -5 -18 9 -70 9 -96 -1 -9
-4 -16 -3 -16 1 0 11 -54 9 -62 -3 -5 -6 -8 -4 -8 5 0 13 -1 13 -11 0 -7 -10
-12 -11 -15 -3 -4 8 -14 9 -34 3 -20 -6 -30 -5 -34 3 -3 8 -5 7 -5 -2 -1 -11
-4 -11 -16 -1 -12 10 -15 10 -15 0 0 -10 -3 -10 -14 -1 -11 9 -15 9 -19 -1 -4
-9 -6 -9 -6 -1 -1 8 -10 9 -31 3 -19 -6 -28 -5 -24 1 6 11 -38 5 -57 -7 -8 -5
-9 -3 -4 6 6 10 4 12 -8 7 -10 -4 -17 -2 -17 5 0 7 -5 6 -15 -2 -9 -7 -15 -8
-15 -2 0 11 -25 11 -36 0 -3 -4 -18 -2 -32 3 -18 7 -27 6 -32 -2 -6 -8 -9 -8
-12 1 -2 8 -27 14 -63 16 -33 1 -60 3 -60 4 0 1 -22 3 -49 6 -28 2 -53 10 -58
17 -6 9 -8 9 -8 -1 0 -7 -5 -10 -10 -7 -6 4 -34 9 -63 12 -29 3 -53 9 -55 13
-2 4 -11 6 -21 3 -10 -3 -21 0 -25 5 -3 5 -19 8 -36 6 -16 -2 -30 0 -30 4 0 4
-17 9 -37 10 -21 2 -42 7 -47 12 -5 5 -15 6 -22 3 -8 -3 -14 -1 -14 5 0 6 -9
8 -20 5 -11 -3 -20 0 -20 6 0 6 -13 11 -29 11 -17 0 -32 4 -36 10 -3 5 -12 7
-20 3 -8 -3 -15 0 -15 5 0 6 -9 9 -20 7 -11 -2 -20 0 -20 6 0 5 -12 9 -26 9
-16 0 -23 4 -18 12 4 7 3 8 -4 4 -7 -4 -26 -1 -44 7 -18 8 -71 29 -118 47 -47
19 -87 37 -90 40 -3 4 -17 10 -32 14 -16 3 -28 11 -28 17 0 6 -4 8 -9 4 -5 -3
-15 0 -23 7 -7 7 -20 14 -28 16 -8 2 -21 10 -27 19 -9 11 -13 12 -13 4 0 -9
-5 -8 -16 4 -9 8 -35 25 -58 37 -22 11 -44 26 -48 32 -4 6 -8 7 -8 3 0 -4 -10
1 -22 13 -12 11 -28 20 -35 20 -7 0 -13 5 -13 10 0 6 -7 10 -15 10 -8 0 -15 4
-15 9 0 5 -9 11 -21 14 -13 4 -18 10 -13 18 4 8 3 10 -4 5 -7 -4 -12 -2 -12 4
0 6 -4 8 -10 5 -5 -3 -10 1 -10 9 0 9 -7 16 -14 16 -8 0 -26 10 -41 23 -14 12
-39 33 -56 47 -54 44 -94 85 -91 93 1 5 -1 6 -6 3 -10 -6 -68 54 -64 67 1 4
-1 6 -6 3 -10 -6 -42 29 -42 45 0 5 -4 7 -10 4 -5 -3 -10 1 -10 10 0 9 -4 14
-9 10 -5 -3 -12 3 -15 12 -3 10 -26 39 -51 66 -25 26 -43 47 -40 47 3 0 -3 10
-14 22 -11 11 -18 26 -14 31 4 6 1 7 -6 3 -8 -5 -14 0 -18 13 -3 12 -9 21 -14
21 -5 0 -8 6 -7 13 2 6 -3 11 -10 9 -6 -1 -11 1 -11 5 3 21 -3 33 -17 33 -8 0
-13 4 -9 9 3 5 -2 17 -11 25 -8 9 -12 16 -8 16 3 0 1 6 -5 13 -6 8 -10 16 -8
18 1 2 0 3 -2 2 -8 -5 -30 32 -31 50 0 10 -6 20 -14 23 -9 3 -12 12 -9 21 4
10 2 14 -5 9 -6 -4 -12 3 -14 16 -2 13 -9 22 -16 20 -8 -1 -10 2 -7 9 8 13
-24 89 -37 89 -5 0 -6 4 -3 10 3 5 -2 21 -11 35 -9 14 -12 25 -8 25 5 0 3 4
-3 8 -7 5 -14 20 -15 35 -1 15 -6 27 -10 27 -4 0 -8 8 -8 18 0 10 -8 28 -17
41 -12 18 -13 22 -2 16 8 -5 5 2 -6 15 -11 13 -14 20 -7 16 11 -6 11 -4 3 10
-14 28 -24 58 -22 68 1 4 -3 14 -9 22 -7 7 -9 23 -5 35 5 16 4 19 -5 14 -10
-6 -12 -1 -8 18 3 15 2 28 -3 29 -7 3 -20 55 -22 96 0 12 -4 22 -7 22 -4 0 -7
15 -8 33 -3 63 -13 122 -23 125 -5 2 -5 11 1 21 5 10 6 21 3 25 -11 11 -25
273 -16 289 3 4 10 4 16 -1 7 -4 23 -8 37 -7 14 1 33 -3 44 -8 11 -5 16 -5 13
0 -3 5 14 9 38 9 26 0 41 -4 38 -9 -4 -6 -1 -7 8 -1 19 11 129 12 153 1 12 -6
16 -5 12 1 -7 12 21 25 35 16 5 -3 6 -10 3 -16 -5 -7 -2 -8 7 -2 8 4 52 9 99
9 47 0 91 4 98 8 8 6 12 2 12 -10 0 -10 4 -14 8 -8 4 6 54 10 115 9 60 0 111
4 114 8 2 5 10 5 16 0 14 -11 77 -10 95 1 8 6 12 2 12 -10 0 -11 3 -14 8 -7 8
11 62 11 82 -1 8 -5 11 -4 7 2 -3 5 12 9 38 9 26 0 41 -4 38 -9 -4 -6 -1 -7 8
-1 19 11 129 12 153 1 12 -6 16 -5 12 1 -7 12 21 25 35 16 5 -3 6 -10 3 -16
-5 -7 -2 -8 7 -2 8 4 52 9 99 9 47 0 91 4 98 8 8 6 12 2 12 -10 0 -10 4 -14 8
-8 4 6 53 10 112 9 58 0 111 4 118 10 10 7 16 6 22 -4 5 -8 12 -11 16 -8 4 4
16 3 27 -3 10 -6 17 -7 14 -2 -3 5 14 9 39 9 24 0 44 -4 44 -10 0 -7 3 -8 8
-1 10 15 94 16 85 2 -5 -9 -3 -9 8 -1 8 6 23 10 34 8 10 -1 25 2 32 8 9 7 13
7 13 -2 0 -6 6 -10 13 -7 6 2 20 0 31 -5 10 -6 16 -6 13 -1 -3 5 14 9 39 9 24
0 44 -4 44 -10 0 -7 3 -8 8 -1 10 15 94 16 85 2 -5 -9 -3 -9 8 -1 8 6 23 10
34 8 10 -1 25 2 32 8 9 7 13 7 13 -2 0 -6 6 -10 13 -7 6 2 20 0 31 -5 10 -6
16 -6 13 -1 -3 5 14 9 39 9 24 0 44 -4 44 -10 0 -7 3 -8 8 -1 10 15 94 16 85
2 -5 -9 -3 -9 8 -1 8 6 23 10 34 8 10 -1 25 2 32 8 9 7 13 7 13 -2 0 -6 6 -10
13 -7 6 2 20 0 31 -5 10 -6 16 -6 13 -1 -3 5 14 9 39 9 24 0 44 -4 44 -10 0
-7 3 -8 8 -1 10 15 94 16 85 2 -5 -9 -3 -9 8 -1 17 12 178 12 198 0 9 -6 12
-5 8 1 -8 12 20 26 34 17 5 -3 6 -10 3 -16 -5 -7 -2 -8 7 -2 8 4 52 9 99 9 47
0 91 4 98 8 8 6 12 2 12 -10 0 -10 4 -14 8 -8 4 6 54 10 115 9 60 0 111 4 114
8 2 5 10 5 16 0 14 -11 77 -10 95 1 8 6 12 2 12 -10 0 -11 3 -14 8 -7 8 11 62
11 82 -1 8 -5 11 -4 7 2 -3 5 12 9 38 9 26 0 41 -4 38 -9 -4 -6 -1 -7 8 -1 19
11 129 12 153 1 12 -6 16 -5 12 1 -7 12 21 25 35 16 5 -3 6 -10 3 -16 -5 -7
-2 -8 7 -2 8 4 52 9 99 9 47 0 91 4 98 8 8 6 12 2 12 -10 0 -10 4 -14 8 -8 4
6 54 10 115 9 60 0 111 4 114 8 2 5 10 5 16 0 14 -11 77 -10 95 1 8 6 12 2 12
-10 0 -11 3 -14 8 -7 8 11 62 11 82 -1 8 -5 11 -4 7 2 -3 5 12 9 38 9 26 0 41
-4 38 -9 -4 -6 -1 -7 8 -1 19 11 129 12 153 1 12 -6 16 -5 12 1 -7 12 21 25
35 16 5 -3 6 -10 3 -16 -5 -7 -2 -8 7 -2 8 4 52 9 99 9 47 0 91 4 98 8 8 6 12
2 12 -10 0 -10 4 -14 8 -8 4 6 54 10 115 9 60 0 111 4 114 8 2 5 10 5 16 0 7
-5 32 -8 57 -7 25 1 53 -3 64 -8 12 -6 16 -5 12 1 -7 12 21 25 35 16 5 -3 6
-10 3 -16 -5 -7 -2 -8 7 -2 8 4 40 8 71 9 31 0 59 3 63 7 4 4 19 -1 33 -10 15
-9 23 -12 20 -6 -5 7 9 10 37 10 28 0 42 -4 38 -10 -5 -8 -3 -8 8 0 8 6 53 10
101 9 56 -1 85 2 81 8 -4 6 -1 7 8 1 8 -5 22 -7 32 -6 9 2 17 -2 17 -9 0 -8 6
-5 13 5 8 10 13 28 12 40 -1 11 3 24 9 28 7 5 6 8 -3 8 -11 0 -11 3 0 17 8 9
9 14 3 10 -7 -4 -11 7 -11 33 0 26 4 37 11 33 6 -4 5 1 -2 10 -8 9 -11 21 -7
27 4 6 2 17 -5 25 -6 7 -7 16 -2 19 5 3 8 15 7 28 -1 13 3 26 9 30 8 5 7 8 -1
8 -7 0 -13 5 -13 11 0 5 5 7 12 3 7 -5 8 -3 2 7 -13 21 -14 80 0 72 6 -4 5 1
-2 10 -8 9 -11 21 -7 27 4 6 2 17 -5 25 -8 10 -8 15 1 21 8 5 9 3 4 -6 -5 -9
-4 -11 4 -6 6 4 8 13 4 19 -13 20 -12 78 1 70 6 -4 5 1 -2 10 -8 9 -11 21 -7
27 4 6 2 17 -5 25 -6 7 -7 16 -2 19 5 3 8 15 7 28 -1 13 3 26 9 30 8 5 7 8 -1
8 -7 0 -13 5 -13 11 0 5 6 7 13 3 8 -5 7 -2 -2 9 -8 10 -11 20 -8 23 3 3 1 19
-3 35 -7 24 -6 29 8 29 13 0 14 2 4 9 -9 5 -14 32 -14 77 -1 38 -6 75 -11 81
-6 9 -5 18 3 28 7 9 8 15 2 15 -5 0 -9 22 -8 51 1 27 -1 52 -5 54 -3 3 -4 17
-1 31 4 20 2 25 -8 19 -9 -6 -10 -3 -1 13 8 14 8 23 1 27 -8 5 -7 11 1 21 6 8
7 14 2 14 -9 0 -14 35 -16 98 0 17 -3 32 -7 32 -4 0 -7 15 -7 33 -1 38 -5 57
-17 76 -7 10 -5 12 3 6 10 -6 11 -3 2 13 -6 12 -11 25 -10 29 1 4 0 10 -1 13
-1 3 -4 16 -5 30 -1 14 -5 33 -9 42 -4 9 -5 21 -2 26 3 6 -1 15 -9 22 -10 8
-12 17 -6 28 5 9 5 23 0 34 -5 10 -14 27 -20 39 -8 16 -8 19 2 14 8 -6 10 -4
4 6 -5 7 -10 20 -11 29 -3 20 -12 55 -14 55 -1 0 -4 14 -6 30 -3 17 -9 32 -15
33 -5 2 -7 8 -3 13 3 5 2 15 -3 22 -4 6 -8 14 -8 17 -8 53 -18 90 -25 90 -5 0
-7 11 -6 25 2 15 -1 22 -7 18 -6 -4 -8 0 -4 10 3 10 3 17 -2 17 -4 0 -14 25
-21 55 -7 30 -17 55 -22 55 -4 0 -8 11 -8 24 0 14 -5 28 -10 31 -6 4 -8 10 -5
14 2 5 -2 17 -10 27 -8 10 -15 29 -15 42 0 12 -4 22 -10 22 -5 0 -10 8 -10 19
0 10 -6 24 -14 30 -7 6 -12 22 -11 35 2 14 -3 27 -12 30 -8 3 -11 10 -8 16 3
5 1 10 -4 10 -6 0 -11 8 -11 19 0 10 -7 24 -15 31 -8 6 -14 15 -13 18 3 12
-45 112 -54 112 -4 0 -5 7 -2 15 4 8 1 15 -6 15 -7 0 -10 7 -6 15 3 8 2 14 -2
14 -19 -3 -25 2 -12 11 13 8 12 10 -3 10 -10 0 -16 4 -12 9 3 5 -2 16 -11 25
-8 9 -12 21 -8 27 4 7 3 9 -2 6 -6 -3 -16 3 -23 15 -10 16 -10 19 1 13 7 -3 5
0 -4 8 -10 8 -15 17 -11 20 3 4 1 7 -5 7 -7 0 -12 7 -12 15 0 8 -5 15 -12 15
-6 0 -9 3 -6 6 6 5 -26 60 -52 91 -6 7 -15 24 -22 38 -6 14 -15 25 -20 25 -4
0 -8 6 -8 13 0 7 -9 23 -20 35 -11 12 -20 26 -20 32 0 5 -5 10 -11 10 -5 0 -8
4 -5 9 3 5 -5 17 -19 27 -13 10 -22 21 -19 26 3 4 0 8 -7 8 -7 0 -10 3 -6 6 6
6 -2 17 -45 63 -15 16 -24 31 -21 35 3 3 -2 8 -11 12 -9 3 -16 11 -16 18 0 6
-11 20 -25 30 -13 10 -22 22 -20 27 3 4 -4 10 -15 14 -11 3 -20 12 -20 19 0
12 -56 80 -107 131 -13 12 -23 27 -23 34 0 6 -5 11 -11 11 -11 0 -39 25 -39
35 0 3 -11 17 -25 31 -14 14 -25 22 -25 19 0 -3 -6 0 -14 7 -8 7 -13 15 -11
18 4 8 -53 59 -59 52 -3 -3 -6 -1 -6 4 0 10 -60 77 -73 82 -4 1 -7 4 -7 7 1
10 -58 55 -71 55 -11 0 -11 3 1 10 13 8 13 10 0 10 -8 0 -25 12 -37 27 -13 14
-23 22 -23 18 0 -4 -8 2 -19 13 -10 12 -21 19 -25 15 -3 -3 -6 1 -6 10 0 15
-11 22 -32 18 -5 0 -8 6 -8 14 0 8 -7 15 -16 15 -8 0 -13 4 -10 9 4 5 -7 15
-24 23 -16 7 -30 17 -30 21 0 5 -5 5 -12 1 -7 -4 -8 -3 -4 4 6 11 -50 48 -66
44 -4 -1 -4 6 -1 15 4 10 2 14 -5 9 -6 -3 -18 4 -27 16 -8 13 -18 22 -20 21
-13 -7 -23 -1 -33 20 -6 12 -11 16 -11 9 -1 -8 -8 -6 -23 7 -11 11 -24 18 -28
16 -5 -3 -10 2 -14 10 -3 8 -13 15 -21 15 -9 0 -14 4 -10 9 3 5 -5 13 -17 17
-13 4 -29 14 -36 23 -10 12 -12 12 -6 1 4 -8 -4 -5 -18 8 -13 12 -29 22 -35
22 -5 0 -20 9 -33 20 -13 11 -28 20 -34 20 -6 0 -19 9 -29 20 -10 12 -22 18
-27 15 -6 -3 -10 -1 -10 5 0 6 -4 8 -10 5 -5 -3 -10 -1 -10 5 0 6 -4 8 -10 5
-5 -3 -10 -2 -10 3 0 5 -20 17 -45 28 -25 10 -45 22 -45 26 0 4 -4 8 -10 8 -5
0 -51 20 -103 45 -52 25 -100 45 -106 45 -7 0 -9 4 -6 10 3 6 -1 7 -9 4 -9 -3
-16 -2 -16 3 0 5 -7 10 -15 11 -8 1 -22 3 -30 4 -8 1 -15 4 -15 7 0 4 -9 12
-21 19 -17 11 -20 11 -13 0 5 -9 2 -8 -10 2 -10 8 -24 15 -30 15 -11 1 -29 8
-71 25 -11 5 -37 14 -57 21 -21 7 -38 17 -38 21 0 4 -5 8 -11 8 -5 0 -7 -5 -4
-11 5 -7 2 -7 -11 0 -42 22 -84 39 -79 31 3 -4 -4 -6 -15 -3 -11 3 -20 9 -20
14 0 5 -10 9 -23 9 -13 0 -27 3 -31 7 -7 7 -24 11 -63 15 -13 1 -23 5 -23 9 0
3 -6 6 -12 7 -22 3 -63 10 -68 12 -3 1 -8 2 -12 1 -5 0 -8 5 -8 12 0 8 -4 7
-10 -3 -7 -11 -10 -11 -10 -2 0 7 -4 10 -10 7 -5 -3 -22 2 -37 12 -21 14 -25
14 -18 3 7 -12 6 -13 -6 -4 -8 5 -21 10 -29 9 -8 0 -18 4 -22 10 -5 6 -8 5 -8
-3 0 -7 -5 -10 -10 -7 -6 4 -8 9 -6 13 2 4 -16 7 -40 6 -26 0 -41 3 -37 9 4 6
-2 8 -15 5 -12 -4 -24 -2 -27 3 -3 4 -12 6 -19 3 -8 -3 -17 0 -21 6 -5 8 -11
8 -21 -1 -10 -8 -14 -8 -14 -1 0 7 -7 9 -17 5 -11 -4 -14 -3 -9 5 4 7 2 12 -3
12 -6 0 -11 -5 -11 -10 0 -7 -6 -7 -17 -2 -10 5 -24 7 -30 5 -7 -3 -13 1 -13
9 0 10 -3 9 -10 -2 -5 -8 -10 -10 -10 -4 0 6 -19 12 -42 12 -49 2 -84 8 -98
17 -5 3 -19 1 -31 -6 -17 -9 -20 -8 -14 2 6 9 2 11 -13 7 -13 -4 -22 -1 -22 5
0 9 -2 9 -8 0 -5 -7 -13 -9 -21 -3 -8 4 -20 6 -28 3 -7 -3 -13 1 -13 8 0 12
-2 12 -9 1 -4 -8 -12 -14 -16 -14 -4 0 -12 6 -16 14 -7 11 -9 11 -9 -1 0 -11
-3 -11 -15 -1 -12 10 -15 10 -15 -1 0 -11 -2 -11 -9 0 -8 13 -12 13 -27 0 -10
-8 -15 -9 -11 -2 5 8 -5 11 -38 10 -25 -1 -45 0 -45 3 0 3 -40 5 -89 5 -54 -1
-87 3 -84 9 4 5 1 6 -8 0 -20 -12 -102 -12 -118 0 -11 8 -13 8 -8 0 4 -7 -5
-11 -23 -12 -17 0 -30 5 -30 11 0 7 -4 6 -10 -3 -9 -13 -10 -13 -10 0 0 13 -2
13 -9 1 -8 -13 -12 -13 -27 0 -10 8 -15 9 -12 4z m240 -1700 c5 -6 8 -6 8 1 0
12 29 12 48 0 6 -4 12 -3 12 2 0 6 14 7 33 3 17 -4 49 -6 70 -5 20 1 37 -3 37
-8 0 -5 7 -5 17 1 11 6 24 6 35 0 10 -6 24 -7 30 -3 7 4 8 3 4 -4 -4 -7 -2
-12 3 -12 6 0 11 5 11 11 0 8 4 8 13 2 6 -6 20 -9 30 -8 9 2 17 -1 17 -6 0 -5
15 -9 33 -9 19 0 37 -3 41 -7 4 -4 19 -8 34 -9 42 -2 44 -3 36 -16 -5 -8 -1
-8 10 1 14 12 19 12 25 2 4 -6 18 -13 29 -14 12 -1 22 -4 22 -7 0 -3 10 -6 22
-7 11 -1 24 -6 27 -11 3 -5 14 -8 24 -6 9 1 17 -2 17 -7 0 -6 4 -8 9 -5 5 3
14 0 20 -8 7 -8 21 -12 31 -9 14 4 20 0 20 -12 0 -11 5 -15 15 -11 8 3 15 1
15 -4 0 -6 3 -9 8 -8 12 3 62 -24 57 -31 -2 -4 5 -7 15 -8 20 -2 112 -60 118
-75 2 -4 10 -8 18 -8 8 0 14 -4 14 -10 0 -5 4 -10 10 -10 10 0 38 -21 76 -57
13 -13 25 -23 28 -23 3 0 34 -29 69 -65 36 -35 67 -61 71 -58 6 6 10 -22 6
-42 -1 -5 2 -7 6 -3 10 11 35 -12 27 -25 -3 -6 -1 -7 5 -3 6 4 17 -5 26 -21 8
-15 24 -36 36 -46 11 -10 18 -23 14 -29 -4 -6 -3 -8 3 -5 11 7 45 -28 36 -37
-4 -3 0 -6 7 -6 7 0 10 -3 7 -6 -4 -4 3 -15 14 -25 12 -10 18 -23 13 -30 -4
-7 -3 -10 2 -7 5 3 18 -6 28 -20 12 -15 14 -22 5 -17 -8 4 -4 -2 9 -14 12 -12
22 -31 22 -41 0 -11 6 -20 14 -20 8 0 17 -11 20 -25 4 -17 11 -23 19 -18 9 5
9 3 -1 -9 -10 -13 -10 -17 3 -22 9 -3 13 -10 10 -16 -3 -5 -1 -10 4 -10 6 0
11 -9 11 -19 0 -11 5 -21 11 -23 5 -2 12 -10 14 -18 8 -35 18 -60 24 -60 4 0
7 -10 8 -22 1 -11 7 -24 14 -28 6 -4 8 -13 5 -19 -4 -6 -2 -11 4 -11 7 0 10
-7 6 -15 -3 -8 -1 -15 4 -15 6 0 10 -11 10 -24 0 -14 5 -28 10 -31 6 -3 10
-15 10 -26 0 -10 3 -19 8 -19 4 0 8 -10 9 -23 2 -23 10 -62 13 -62 3 0 12 -41
13 -62 0 -13 5 -23 10 -23 4 0 7 -8 5 -17 -1 -10 1 -24 6 -32 7 -10 6 -12 -4
-6 -10 6 -11 4 -4 -6 13 -21 21 -69 29 -164 2 -27 4 -50 5 -50 1 0 3 -37 5
-81 1 -45 6 -88 10 -95 5 -7 4 -10 -3 -5 -6 3 -14 2 -17 -4 -5 -8 -11 -7 -21
1 -11 9 -14 8 -14 -2 0 -11 -2 -11 -10 1 -9 13 -10 13 -10 0 0 -13 -1 -13 -10
0 -9 13 -10 13 -10 0 0 -13 -1 -13 -10 0 -9 13 -10 13 -10 0 0 -13 -1 -13 -10
0 -9 13 -10 13 -10 0 -1 -11 -4 -10 -15 4 -11 14 -15 16 -15 5 0 -11 -19 -14
-100 -13 -55 1 -107 4 -115 8 -8 3 -15 1 -15 -5 0 -6 -6 -6 -18 0 -13 7 -23 6
-32 -2 -10 -9 -11 -9 -6 1 4 6 2 12 -3 12 -6 0 -11 -4 -11 -8 0 -5 -7 -9 -15
-9 -8 0 -12 4 -9 8 2 4 0 10 -6 14 -5 3 -10 -1 -10 -9 0 -19 -5 -20 -31 -6
-13 8 -19 7 -19 0 0 -7 -6 -8 -18 -1 -13 7 -23 6 -32 -2 -10 -9 -11 -9 -6 1 4
6 2 12 -3 12 -6 0 -11 -4 -11 -8 0 -5 -7 -9 -15 -9 -8 0 -12 4 -9 9 3 4 0 8
-5 8 -6 0 -11 -4 -11 -8 0 -9 -42 -8 -58 2 -7 4 -12 2 -12 -6 0 -9 -3 -9 -10
2 -9 13 -10 13 -10 0 0 -13 -1 -13 -10 0 -9 13 -10 13 -11 0 0 -10 -3 -8 -9 5
l-9 20 0 -20 c-1 -17 -3 -17 -11 -5 -7 11 -10 11 -10 2 0 -10 -5 -10 -20 -2
-15 8 -20 8 -20 -2 0 -9 -3 -9 -10 2 -9 13 -10 13 -10 0 0 -13 -1 -13 -10 0
-9 13 -10 13 -10 0 0 -13 -1 -13 -10 0 -9 13 -10 13 -10 0 0 -13 -1 -13 -10 0
-9 13 -10 13 -10 0 -1 -11 -4 -10 -15 4 -11 14 -15 16 -15 5 0 -15 -56 -19
-78 -5 -7 4 -12 1 -12 -6 0 -9 -3 -9 -10 2 -9 13 -10 13 -10 0 0 -13 -1 -13
-10 0 -9 13 -10 13 -11 0 0 -10 -3 -8 -9 5 l-9 20 0 -20 c-1 -17 -3 -17 -11
-5 -7 11 -10 11 -10 2 0 -10 -5 -10 -20 -2 -15 8 -20 8 -20 -2 0 -9 -3 -9 -10
2 -9 13 -10 13 -10 0 0 -13 -1 -13 -10 0 -9 13 -10 13 -10 0 0 -13 -1 -13 -10
0 -9 13 -10 13 -10 0 0 -13 -1 -13 -10 0 -9 13 -10 13 -10 0 -1 -11 -4 -10
-15 4 -12 16 -15 17 -15 4 0 -15 -36 -18 -59 -3 -6 3 -11 1 -11 -5 0 -7 -6 -8
-18 -1 -13 7 -23 6 -32 -2 -10 -9 -11 -9 -6 1 4 6 2 12 -3 12 -6 0 -11 -4 -11
-8 0 -5 -7 -9 -15 -9 -8 0 -12 4 -9 8 2 4 0 10 -6 14 -5 3 -10 -1 -10 -9 0
-19 -5 -20 -31 -6 -13 8 -19 7 -19 0 0 -7 -6 -8 -18 -1 -13 7 -23 6 -32 -2
-10 -9 -11 -9 -6 1 4 6 2 12 -3 12 -6 0 -11 -4 -11 -8 0 -5 -7 -9 -15 -9 -8 0
-12 4 -9 9 3 4 0 8 -5 8 -6 0 -11 -3 -11 -7 0 -10 -205 -7 -220 2 -5 3 -10 0
-10 -7 0 -9 -3 -9 -10 2 -8 13 -10 13 -10 1 0 -11 -4 -9 -14 5 -14 18 -15 18
-22 1 -5 -15 -9 -16 -15 -5 -7 10 -9 10 -9 0 0 -10 -5 -10 -20 -2 -15 8 -20 8
-20 -2 0 -9 -3 -9 -10 2 -9 13 -10 13 -10 0 0 -13 -1 -13 -10 0 -9 13 -10 13
-10 0 0 -13 -1 -13 -10 0 -9 13 -10 13 -10 0 0 -13 -1 -13 -10 0 -9 13 -10 13
-10 0 -1 -11 -4 -10 -15 4 -11 14 -15 16 -15 5 0 -11 -19 -14 -100 -13 -55 1
-107 4 -115 8 -8 3 -15 1 -15 -5 0 -6 -6 -6 -18 0 -13 7 -23 6 -32 -2 -10 -9
-11 -9 -6 1 4 6 2 12 -3 12 -6 0 -11 -4 -11 -8 0 -5 -7 -9 -15 -9 -8 0 -12 4
-9 8 2 4 0 10 -6 14 -5 3 -10 -1 -10 -9 0 -19 -5 -20 -31 -6 -13 8 -19 7 -19
0 0 -7 -6 -8 -18 -1 -13 7 -23 6 -32 -2 -10 -9 -11 -9 -6 1 4 6 2 12 -3 12 -6
0 -11 -4 -11 -8 0 -5 -7 -9 -15 -9 -8 0 -12 4 -9 9 3 4 0 8 -5 8 -6 0 -11 -4
-11 -8 0 -9 -42 -8 -58 2 -7 4 -12 2 -12 -6 0 -9 -3 -9 -10 2 -9 13 -10 13
-10 0 0 -13 -1 -13 -10 0 -9 13 -10 13 -11 0 0 -10 -3 -8 -9 5 l-9 20 0 -20
c-1 -17 -3 -17 -11 -5 -7 11 -10 11 -10 2 0 -10 -5 -10 -20 -2 -15 8 -20 8
-20 -2 0 -9 -3 -9 -10 2 -9 13 -10 13 -10 0 0 -13 -1 -13 -10 0 -9 13 -10 13
-10 0 0 -13 -1 -13 -10 0 -9 13 -10 13 -10 0 0 -13 -1 -13 -10 0 -9 13 -10 13
-10 0 -1 -11 -4 -10 -15 4 -11 14 -15 16 -15 5 0 -15 -56 -19 -78 -5 -7 4 -12
1 -12 -6 0 -9 -3 -9 -10 2 -9 13 -10 13 -10 0 0 -13 -1 -13 -10 0 -9 13 -10
13 -11 0 0 -10 -3 -8 -9 5 l-9 20 0 -20 c-1 -17 -3 -17 -11 -5 -7 11 -10 11
-10 2 0 -10 -5 -10 -20 -2 -15 8 -20 8 -20 -2 0 -9 -3 -9 -10 2 -9 13 -10 13
-10 0 0 -13 -1 -13 -10 0 -9 13 -10 13 -10 0 0 -13 -1 -13 -10 0 -9 13 -10 13
-10 0 0 -13 -1 -13 -10 0 -9 13 -10 13 -10 0 -1 -11 -4 -10 -15 4 -11 14 -15
16 -15 5 0 -8 -10 -14 -24 -14 -13 0 -22 3 -19 8 2 4 -1 7 -6 7 -6 0 -11 -4
-11 -8 0 -5 -7 -9 -15 -9 -8 0 -12 4 -9 8 2 4 0 10 -6 14 -5 3 -10 -1 -10 -9
0 -19 -5 -20 -31 -6 -13 8 -19 7 -19 0 0 -7 -6 -8 -18 -1 -13 7 -23 6 -32 -2
-10 -9 -11 -9 -6 1 4 6 2 12 -3 12 -6 0 -11 -4 -11 -8 0 -5 -7 -9 -15 -9 -11
0 -12 4 -4 14 16 18 4 16 -15 -2 -12 -12 -20 -14 -36 -5 -14 8 -20 8 -20 0 0
-7 -6 -8 -19 -1 -10 6 -21 8 -24 5 -3 -3 -42 -5 -88 -5 -81 0 -108 11 -91 36
4 5 7 31 7 58 -1 26 2 47 5 47 9 0 6 32 -5 49 -6 10 -4 12 5 6 9 -6 11 1 8 29
-2 20 -1 36 2 36 4 0 7 6 8 13 0 6 2 29 3 49 1 21 5 35 9 33 4 -2 7 2 7 10 0
8 -5 15 -10 15 -6 0 -5 5 1 13 5 6 13 30 16 52 4 22 9 57 13 78 3 20 10 37 15
37 4 0 5 12 2 26 -5 18 -3 25 4 20 6 -3 9 1 7 11 -1 10 0 23 4 28 6 10 10 28
13 58 1 9 6 17 11 17 5 0 7 7 3 15 -3 8 -2 15 3 15 4 0 8 6 9 13 6 45 16 76
23 71 5 -3 6 2 3 10 -3 9 -1 16 6 16 6 0 8 5 5 10 -3 6 -1 10 5 10 6 0 8 5 5
10 -4 6 -1 18 7 27 7 9 12 18 11 20 -8 10 -1 23 9 17 7 -5 9 -2 6 7 -3 8 0 23
8 33 7 11 11 23 8 27 -3 5 0 9 6 9 6 0 8 5 5 10 -3 6 -1 10 5 10 6 0 8 5 5 10
-3 6 -1 10 4 10 6 0 11 9 11 20 0 12 7 20 16 20 14 0 14 3 4 15 -11 13 -10 14
4 9 12 -4 15 -2 11 9 -4 8 1 17 10 21 9 3 14 10 10 15 -3 5 4 16 15 24 11 7
17 17 14 20 -4 4 4 16 17 28 13 11 17 18 9 14 -8 -4 -4 3 9 14 13 12 19 21 15
21 -5 0 2 7 14 16 12 8 20 20 17 25 -4 5 -1 9 5 9 6 0 8 5 5 10 -4 6 -3 9 2 8
10 -3 73 58 67 65 -3 3 4 8 15 12 12 3 19 10 16 14 -2 5 7 13 21 20 14 6 23
15 20 19 -2 4 9 14 25 21 16 7 27 16 25 19 -5 9 20 32 28 25 3 -3 8 2 12 11 3
9 12 16 19 16 7 0 16 7 19 16 3 8 10 13 15 9 6 -3 13 1 18 8 12 20 130 97 137
90 3 -4 6 -1 6 5 0 7 7 12 15 12 8 0 15 3 15 8 0 8 49 32 64 31 5 0 12 5 17
13 5 7 12 13 16 14 19 2 73 27 73 33 0 4 12 8 28 9 15 1 33 10 40 19 9 12 12
13 12 3 0 -9 5 -8 16 6 8 10 12 12 8 4 -7 -12 -5 -13 8 -3 8 7 18 10 21 6 4
-3 7 -1 7 6 0 8 7 11 15 7 8 -3 15 -1 15 3 0 5 11 8 24 7 14 -2 27 3 30 11 3
8 10 12 15 9 5 -4 22 -1 38 6 15 6 34 10 42 9 8 -1 18 3 22 11 7 11 9 11 9 0
0 -8 5 -10 12 -6 13 8 52 16 81 15 9 0 17 6 17 12 0 7 4 6 10 -3 5 -8 10 -10
10 -4 0 6 12 10 28 9 15 -1 32 2 39 7 7 5 14 5 18 -2 3 -6 12 -7 18 -3 7 4 41
9 76 10 35 1 65 4 67 5 7 8 60 2 66 -7z"/>
</g>
</svg>
